# xmcd
#
# Track frame offsets: 
#        150
#        19309
#        35106
#        55711
#        72642
#        104701
#        122059
#        137125
#        156669
#        178739
#
# Disc length: 2655 seconds
#
# Revision: 0
# Processed by: cddbd v1.5.2PL0 Copyright (c) Steve Scherf et al.
# Submitted via: ExactAudioCopyFreeDBPlugin 1.0
#
DISCID=9e0a5d0a
DTITLE=Farah Rieli - My Weapon
DYEAR=2012
DGENRE=Soul
TTITLE0=Happy like so many
TTITLE1=Loveslave
TTITLE2=Scared of hope
TTITLE3=My Weapon
TTITLE4=Finally
TTITLE5=Tough Journey
TTITLE6=Listen up
TTITLE7=Doesn't matter
TTITLE8=Who's more
TTITLE9=Lass mich los
EXTD=
EXTT0=
EXTT1=
EXTT2=
EXTT3=
EXTT4=
EXTT5=
EXTT6=
EXTT7=
EXTT8=
EXTT9=
PLAYORDER=
